<svg xmlns="http://www.w3.org/2000/svg" viewBox="0 0 64 64" role="img" aria-label="JSON Viewer favicon">
  <defs>
    <linearGradient id="bg" x1="0" y1="0" x2="1" y2="1">
      <stop offset="0" stop-color="#0f172a"/>
      <stop offset="1" stop-color="#1e293b"/>
    </linearGradient>
  </defs>
  <rect x="4" y="4" width="56" height="56" rx="14" fill="url(#bg)"/>
  <path d="M22 18c-4 0-6 2-6 6v4c0 2-1 3-3 4 2 1 3 2 3 4v4c0 4 2 6 6 6" fill="none" stroke="#1e88e5" stroke-width="4" stroke-linecap="round"/>
  <path d="M42 18c4 0 6 2 6 6v4c0 2 1 3 3 4-2 1-3 2-3 4v4c0 4-2 6-6 6" fill="none" stroke="#43a047" stroke-width="4" stroke-linecap="round"/>
  <circle cx="32" cy="24" r="2.5" fill="#fb8c00"/>
  <circle cx="32" cy="32" r="2.5" fill="#8e24aa"/>
  <circle cx="32" cy="40" r="2.5" fill="#e53935"/>
</svg>
